{
  "asset": {
    "version": "2.0",
    "generator": "Sketchup glTF Exporter v1.2.6 by Centaur"
  },
  "scene": 0,
  "scenes": [
    {
      "nodes": [
        0
      ]
    }
  ],
  "samplers": [
    {
    }
  ],
  "nodes": [
    {
      "name": "root",
      "mesh": 0
    }
  ],
  "materials": [
    {
      "pbrMetallicRoughness": {
        "baseColorFactor": [
          0.2176,
          0.2176,
          0.2176,
          1.0
        ],
        "metallicFactor": 0.1,
        "roughnessFactor": 0.9
      },
      "name": "default material",
      "doubleSided": true
    },
    {
      "pbrMetallicRoughness": {
        "baseColorFactor": [
          0.325,
          0.1332,
          0.0278,
          1.0
        ],
        "metallicFactor": 0.1,
        "roughnessFactor": 0.9
      },
      "name": "Matière4"
    },
    {
      "pbrMetallicRoughness": {
        "baseColorTexture": {
          "index": 0
        },
        "metallicFactor": 0.1,
        "roughnessFactor": 0.9
      },
      "name": "Carreau simple"
    },
    {
      "pbrMetallicRoughness": {
        "baseColorFactor": [
          0.9658,
          0.0,
          0.9914,
          1.0
        ],
        "metallicFactor": 0.1,
        "roughnessFactor": 0.9
      },
      "name": "Matière3"
    },
    {
      "pbrMetallicRoughness": {
        "baseColorFactor": [
          0.0111,
          0.9914,
          0.0003,
          1.0
        ],
        "metallicFactor": 0.1,
        "roughnessFactor": 0.9
      },
      "name": "Matière2"
    },
    {
      "pbrMetallicRoughness": {
        "baseColorFactor": [
          0.0104,
          0.9914,
          0.9914,
          1.0
        ],
        "metallicFactor": 0.1,
        "roughnessFactor": 0.9
      },
      "name": "Matière5"
    },
    {
      "pbrMetallicRoughness": {
        "baseColorFactor": [
          0.2549,
          0.6524,
          0.0511,
          1.0
        ],
        "metallicFactor": 0.1,
        "roughnessFactor": 0.9
      },
      "name": "Matière"
    },
    {
      "pbrMetallicRoughness": {
        "baseColorTexture": {
          "index": 1
        },
        "metallicFactor": 0.1,
        "roughnessFactor": 0.9
      },
      "name": "Bois de bambou moyen"
    },
    {
      "pbrMetallicRoughness": {
        "baseColorFactor": [
          0.9658,
          0.0,
          0.0003,
          1.0
        ],
        "metallicFactor": 0.1,
        "roughnessFactor": 0.9
      },
      "name": "Matière7"
    },
    {
      "pbrMetallicRoughness": {
        "baseColorFactor": [
          0.9914,
          0.9914,
          0.0008,
          1.0
        ],
        "metallicFactor": 0.1,
        "roughnessFactor": 0.9
      },
      "name": "Matière6"
    },
    {
      "pbrMetallicRoughness": {
        "baseColorTexture": {
          "index": 2
        },
        "metallicFactor": 0.1,
        "roughnessFactor": 0.9
      },
      "name": "[Translucent Glass Safety]4",
      "alphaMode": "BLEND"
    },
    {
      "pbrMetallicRoughness": {
        "baseColorTexture": {
          "index": 3
        },
        "metallicFactor": 0.1,
        "roughnessFactor": 0.9
      },
      "name": "[Translucent Glass Safety]3",
      "alphaMode": "BLEND"
    },
    {
      "pbrMetallicRoughness": {
        "baseColorFactor": [
          0.1275,
          0.3066,
          0.8513,
          0.0562
        ],
        "metallicFactor": 0.1,
        "roughnessFactor": 0.9
      },
      "name": "Verre translucide bleu",
      "alphaMode": "BLEND"
    },
    {
      "pbrMetallicRoughness": {
        "baseColorTexture": {
          "index": 4
        },
        "metallicFactor": 0.1,
        "roughnessFactor": 0.9
      },
      "name": "[Translucent Glass Safety]5",
      "alphaMode": "BLEND"
    },
    {
      "pbrMetallicRoughness": {
        "baseColorTexture": {
          "index": 5
        },
        "metallicFactor": 0.1,
        "roughnessFactor": 0.9
      },
      "name": "[Translucent Glass Safety]2",
      "alphaMode": "BLEND"
    }
  ],
  "images": [
    {
      "bufferView": 0,
      "mimeType": "image/jpeg"
    },
    {
      "bufferView": 1,
      "mimeType": "image/jpeg"
    },
    {
      "bufferView": 2,
      "mimeType": "image/jpeg"
    },
    {
      "bufferView": 3,
      "mimeType": "image/jpeg"
    },
    {
      "bufferView": 4,
      "mimeType": "image/jpeg"
    },
    {
      "bufferView": 5,
      "mimeType": "image/jpeg"
    }
  ],
  "textures": [
    {
      "source": 0,
      "sampler": 0
    },
    {
      "source": 1,
      "sampler": 0
    },
    {
      "source": 2,
      "sampler": 0
    },
    {
      "source": 3,
      "sampler": 0
    },
    {
      "source": 4,
      "sampler": 0
    },
    {
      "source": 5,
      "sampler": 0
    }
  ],
  "meshes": [
    {
      "primitives": [
        {
          "attributes": {
            "POSITION": 0,
            "NORMAL": 1
          },
          "indices": 5,
          "mode": 4,
          "material": 0
        },
        {
          "attributes": {
            "POSITION": 0,
            "NORMAL": 1
          },
          "indices": 6,
          "mode": 4,
          "material": 1
        },
        {
          "attributes": {
            "POSITION": 2,
            "NORMAL": 3,
            "TEXCOORD_0": 4
          },
          "indices": 7,
          "mode": 4,
          "material": 2
        },
        {
          "attributes": {
            "POSITION": 0,
            "NORMAL": 1
          },
          "indices": 8,
          "mode": 4,
          "material": 3
        },
        {
          "attributes": {
            "POSITION": 0,
            "NORMAL": 1
          },
          "indices": 9,
          "mode": 4,
          "material": 4
        },
        {
          "attributes": {
            "POSITION": 0,
            "NORMAL": 1
          },
          "indices": 10,
          "mode": 4,
          "material": 5
        },
        {
          "attributes": {
            "POSITION": 0,
            "NORMAL": 1
          },
          "indices": 11,
          "mode": 4,
          "material": 6
        },
        {
          "attributes": {
            "POSITION": 2,
            "NORMAL": 3,
            "TEXCOORD_0": 4
          },
          "indices": 12,
          "mode": 4,
          "material": 7
        },
        {
          "attributes": {
            "POSITION": 0,
            "NORMAL": 1
          },
          "indices": 13,
          "mode": 4,
          "material": 8
        },
        {
          "attributes": {
            "POSITION": 0,
            "NORMAL": 1
          },
          "indices": 14,
          "mode": 4,
          "material": 9
        },
        {
          "attributes": {
            "POSITION": 2,
            "NORMAL": 3,
            "TEXCOORD_0": 4
          },
          "indices": 15,
          "mode": 4,
          "material": 10
        },
        {
          "attributes": {
            "POSITION": 2,
            "NORMAL": 3,
            "TEXCOORD_0": 4
          },
          "indices": 16,
          "mode": 4,
          "material": 11
        },
        {
          "attributes": {
            "POSITION": 0,
            "NORMAL": 1
          },
          "indices": 17,
          "mode": 4,
          "material": 12
        },
        {
          "attributes": {
            "POSITION": 2,
            "NORMAL": 3,
            "TEXCOORD_0": 4
          },
          "indices": 18,
          "mode": 4,
          "material": 13
        },
        {
          "attributes": {
            "POSITION": 2,
            "NORMAL": 3,
            "TEXCOORD_0": 4
          },
          "indices": 19,
          "mode": 4,
          "material": 14
        }
      ]
    }
  ],
  "accessors": [
    {
      "bufferView": 6,
      "componentType": 5126,
      "count": 108,
      "type": "VEC3",
      "min": [
        0.5778561926207059,
        -3.0657734704422223e-16,
        -5.006788034846837
      ],
      "max": [
        3.7988561926207067,
        3.4025000000000003,
        -0.5327880348468358
      ]
    },
    {
      "bufferView": 7,
      "componentType": 5126,
      "count": 108,
      "type": "VEC3",
      "min": [
        -1.0,
        -1.0,
        -1.0
      ],
      "max": [
        1.0,
        1.0,
        1.0
      ]
    },
    {
      "bufferView": 8,
      "componentType": 5126,
      "count": 80,
      "type": "VEC3",
      "min": [
        0.8542836775621678,
        -3.065773470442222e-16,
        -5.006788034846836
      ],
      "max": [
        3.7988561926207067,
        3.4025000000000003,
        0.6922119651531636
      ]
    },
    {
      "bufferView": 9,
      "componentType": 5126,
      "count": 80,
      "type": "VEC3",
      "min": [
        -0.9999999999999999,
        -1.0,
        -2.449293598294707e-16
      ],
      "max": [
        1.0,
        0.9999999999999999,
        1.0
      ]
    },
    {
      "bufferView": 10,
      "componentType": 5126,
      "count": 80,
      "type": "VEC2",
      "min": [
        0.0,
        -10.163017211996817
      ],
      "max": [
        32.852939861199715,
        15.080997363132633
      ]
    },
    {
      "bufferView": 11,
      "componentType": 5121,
      "count": 78,
      "type": "SCALAR"
    },
    {
      "bufferView": 11,
      "componentType": 5121,
      "count": 24,
      "type": "SCALAR",
      "byteOffset": 78
    },
    {
      "bufferView": 12,
      "componentType": 5121,
      "count": 6,
      "type": "SCALAR"
    },
    {
      "bufferView": 11,
      "componentType": 5121,
      "count": 6,
      "type": "SCALAR",
      "byteOffset": 102
    },
    {
      "bufferView": 11,
      "componentType": 5121,
      "count": 18,
      "type": "SCALAR",
      "byteOffset": 108
    },
    {
      "bufferView": 11,
      "componentType": 5121,
      "count": 6,
      "type": "SCALAR",
      "byteOffset": 126
    },
    {
      "bufferView": 11,
      "componentType": 5121,
      "count": 60,
      "type": "SCALAR",
      "byteOffset": 132
    },
    {
      "bufferView": 12,
      "componentType": 5121,
      "count": 102,
      "type": "SCALAR",
      "byteOffset": 6
    },
    {
      "bufferView": 11,
      "componentType": 5121,
      "count": 33,
      "type": "SCALAR",
      "byteOffset": 192
    },
    {
      "bufferView": 11,
      "componentType": 5121,
      "count": 33,
      "type": "SCALAR",
      "byteOffset": 225
    },
    {
      "bufferView": 12,
      "componentType": 5121,
      "count": 6,
      "type": "SCALAR",
      "byteOffset": 108
    },
    {
      "bufferView": 12,
      "componentType": 5121,
      "count": 6,
      "type": "SCALAR",
      "byteOffset": 114
    },
    {
      "bufferView": 11,
      "componentType": 5121,
      "count": 6,
      "type": "SCALAR",
      "byteOffset": 258
    },
    {
      "bufferView": 12,
      "componentType": 5121,
      "count": 6,
      "type": "SCALAR",
      "byteOffset": 120
    },
    {
      "bufferView": 12,
      "componentType": 5121,
      "count": 6,
      "type": "SCALAR",
      "byteOffset": 126
    }
  ],
  "bufferViews": [
    {
      "buffer": 0,
      "byteLength": 40734
    },
    {
      "buffer": 0,
      "byteOffset": 40734,
      "byteLength": 8600
    },
    {
      "buffer": 0,
      "byteOffset": 49334,
      "byteLength": 6047
    },
    {
      "buffer": 0,
      "byteOffset": 55381,
      "byteLength": 6047
    },
    {
      "buffer": 0,
      "byteOffset": 61428,
      "byteLength": 6047
    },
    {
      "buffer": 0,
      "byteOffset": 67475,
      "byteLength": 6047
    },
    {
      "buffer": 0,
      "byteOffset": 73524,
      "byteLength": 1296,
      "target": 34962,
      "byteStride": 12
    },
    {
      "buffer": 0,
      "byteOffset": 74820,
      "byteLength": 1296,
      "target": 34962,
      "byteStride": 12
    },
    {
      "buffer": 0,
      "byteOffset": 76116,
      "byteLength": 960,
      "target": 34962,
      "byteStride": 12
    },
    {
      "buffer": 0,
      "byteOffset": 77076,
      "byteLength": 960,
      "target": 34962,
      "byteStride": 12
    },
    {
      "buffer": 0,
      "byteOffset": 78040,
      "byteLength": 640,
      "target": 34962,
      "byteStride": 8
    },
    {
      "buffer": 0,
      "byteOffset": 78680,
      "byteLength": 264,
      "target": 34963
    },
    {
      "buffer": 0,
      "byteOffset": 78944,
      "byteLength": 132,
      "target": 34963
    }
  ],
  "buffers": [
    {
      "uri": "data:application/octet-stream;base64,",
      "byteLength": 79076
    }
  ]
}