{
  "asset": {
    "version": "2.0",
    "generator": "Sketchup glTF Exporter v1.2.6 by Centaur"
  },
  "scene": 0,
  "scenes": [
    {
      "nodes": [
        0
      ]
    }
  ],
  "samplers": [
    {
    }
  ],
  "nodes": [
    {
      "name": "root",
      "mesh": 0
    }
  ],
  "materials": [
    {
      "pbrMetallicRoughness": {
        "baseColorFactor": [
          0.2176,
          0.2176,
          0.2176,
          1.0
        ],
        "metallicFactor": 0.1,
        "roughnessFactor": 0.9
      },
      "name": "default material",
      "doubleSided": true
    },
    {
      "pbrMetallicRoughness": {
        "baseColorFactor": [
          0.1669,
          0.187,
          0.1768,
          1.0
        ],
        "metallicFactor": 0.1,
        "roughnessFactor": 0.9
      },
      "name": "Matière2"
    },
    {
      "pbrMetallicRoughness": {
        "baseColorFactor": [
          1.0,
          0.9743,
          0.8751,
          1.0
        ],
        "metallicFactor": 0.1,
        "roughnessFactor": 0.9
      },
      "name": "Matière3"
    },
    {
      "pbrMetallicRoughness": {
        "baseColorFactor": [
          0.4704,
          0.2716,
          0.1193,
          1.0
        ],
        "metallicFactor": 0.1,
        "roughnessFactor": 0.9
      },
      "name": "Matière1"
    },
    {
      "pbrMetallicRoughness": {
        "baseColorFactor": [
          0.7742,
          0.5114,
          0.2047,
          1.0
        ],
        "metallicFactor": 0.1,
        "roughnessFactor": 0.9
      },
      "name": "Matière"
    },
    {
      "pbrMetallicRoughness": {
        "baseColorFactor": [
          0.0697,
          0.0697,
          0.0677,
          1.0
        ],
        "metallicFactor": 0.1,
        "roughnessFactor": 0.9
      },
      "name": "Matière4"
    },
    {
      "pbrMetallicRoughness": {
        "baseColorFactor": [
          0.2158,
          0.2158,
          0.212,
          1.0
        ],
        "metallicFactor": 0.1,
        "roughnessFactor": 0.9
      },
      "name": "Matière5"
    },
    {
      "pbrMetallicRoughness": {
        "baseColorFactor": [
          0.6121,
          0.6121,
          0.6055,
          1.0
        ],
        "metallicFactor": 0.1,
        "roughnessFactor": 0.9
      },
      "name": "Matière7"
    }
  ],
  "meshes": [
    {
      "primitives": [
        {
          "attributes": {
            "POSITION": 0,
            "NORMAL": 1
          },
          "indices": 2,
          "mode": 4,
          "material": 0
        },
        {
          "attributes": {
            "POSITION": 0,
            "NORMAL": 1
          },
          "indices": 3,
          "mode": 4,
          "material": 1
        },
        {
          "attributes": {
            "POSITION": 0,
            "NORMAL": 1
          },
          "indices": 4,
          "mode": 4,
          "material": 2
        },
        {
          "attributes": {
            "POSITION": 0,
            "NORMAL": 1
          },
          "indices": 5,
          "mode": 4,
          "material": 3
        },
        {
          "attributes": {
            "POSITION": 0,
            "NORMAL": 1
          },
          "indices": 6,
          "mode": 4,
          "material": 4
        },
        {
          "attributes": {
            "POSITION": 0,
            "NORMAL": 1
          },
          "indices": 7,
          "mode": 4,
          "material": 5
        },
        {
          "attributes": {
            "POSITION": 0,
            "NORMAL": 1
          },
          "indices": 8,
          "mode": 4,
          "material": 6
        },
        {
          "attributes": {
            "POSITION": 0,
            "NORMAL": 1
          },
          "indices": 9,
          "mode": 4,
          "material": 7
        }
      ]
    }
  ],
  "accessors": [
    {
      "bufferView": 0,
      "componentType": 5126,
      "count": 3314,
      "type": "VEC3",
      "min": [
        -3959.411967812488,
        -4.478766372538443e-13,
        -7730.482272965951
      ],
      "max": [
        7174.980728750011,
        3640.76545658522,
        -545.6148706776236
      ]
    },
    {
      "bufferView": 1,
      "componentType": 5126,
      "count": 3314,
      "type": "VEC3",
      "min": [
        -1.0,
        -1.0,
        -1.0
      ],
      "max": [
        1.0,
        1.0,
        1.0
      ]
    },
    {
      "bufferView": 2,
      "componentType": 5123,
      "count": 3102,
      "type": "SCALAR"
    },
    {
      "bufferView": 2,
      "componentType": 5123,
      "count": 900,
      "type": "SCALAR",
      "byteOffset": 6204
    },
    {
      "bufferView": 2,
      "componentType": 5123,
      "count": 684,
      "type": "SCALAR",
      "byteOffset": 8004
    },
    {
      "bufferView": 2,
      "componentType": 5123,
      "count": 1902,
      "type": "SCALAR",
      "byteOffset": 9372
    },
    {
      "bufferView": 2,
      "componentType": 5123,
      "count": 1164,
      "type": "SCALAR",
      "byteOffset": 13176
    },
    {
      "bufferView": 2,
      "componentType": 5123,
      "count": 111,
      "type": "SCALAR",
      "byteOffset": 15504
    },
    {
      "bufferView": 2,
      "componentType": 5123,
      "count": 225,
      "type": "SCALAR",
      "byteOffset": 15726
    },
    {
      "bufferView": 2,
      "componentType": 5123,
      "count": 84,
      "type": "SCALAR",
      "byteOffset": 16176
    }
  ],
  "bufferViews": [
    {
      "buffer": 0,
      "byteLength": 39768,
      "target": 34962,
      "byteStride": 12
    },
    {
      "buffer": 0,
      "byteOffset": 39768,
      "byteLength": 39768,
      "target": 34962,
      "byteStride": 12
    },
    {
      "buffer": 0,
      "byteOffset": 79536,
      "byteLength": 16344,
      "target": 34963
    }
  ],
  "buffers": [
    {
      "uri": "data:application/octet-stream;base64,",
      "byteLength": 95880
    }
  ]
}